# xmcd CD database file
#
# Track frame offsets:
#	150
#	15080
#	33622
#	46212
#	49565
#	57815
#	73905
#	86445
#	96092
#	106262
#	132772
#	150095
#	162300
#	174632
#	179565
#
# Disc length: 2759 seconds
#
# Revision: 0
# Processed by: cddbd v1.5.1PL2 Copyright (c) Steve Scherf et al.
# Submitted via: CDex 1.51
#
DISCID=b30ac50f
DTITLE=Nitty Gritty Dirt Band - Dream
DYEAR=1975
DGENRE=Country
TTITLE0=Winterwhite (Wind Harp)
TTITLE1=Battle Of New Orleans
TTITLE2=Bayou Jubilee
TTITLE3=Sally Was A Goodun
TTITLE4=Hey Good Lookin'
TTITLE5=Classical Banjo I and Malaguena and Classical Banjo II
TTITLE6=Daddy Was A Sailor
TTITLE7=Sleeping On The Beach
TTITLE8=Santa Monica Peer
TTITLE9=Ripplin' Waters
TTITLE10=(All I Have To Do Is) Dream
TTITLE11=Mother Of Love
TTITLE12=The Moon Just Turned Blue
TTITLE13=Gotta Travel On
TTITLE14=Joshua Come Home and Solstice and Symphonion Montage
EXTD=YEAR: 1975
EXTT0=
EXTT1=
EXTT2=
EXTT3=
EXTT4=
EXTT5=
EXTT6=
EXTT7=
EXTT8=
EXTT9=
EXTT10=
EXTT11=
EXTT12=
EXTT13=
EXTT14=
PLAYORDER=
